<?xml version="1.0" encoding="UTF-8" standalone="no"?>
<!-- Created with Inkscape (http://www.inkscape.org/) -->

<svg
   width="15.999985mm"
   height="16mm"
   viewBox="0 0 15.999985 16"
   version="1.1"
   id="svg5"
   xml:space="preserve"
   xmlns="http://www.w3.org/2000/svg"
   xmlns:svg="http://www.w3.org/2000/svg"><defs
     id="defs2" /><g
     id="layer1"
     transform="translate(-146.29735,-201.26283)"><path
       style="fill:#de4484;fill-opacity:1;stroke-width:0.0259831"
       d="m 146.56751,208.4467 c -0.23515,-0.31695 -0.27017,-0.37602 -0.27015,-0.45589 0,-0.0964 9e-4,-0.0972 0.35436,-0.28273 0.27587,-0.14479 0.41517,-0.18799 0.50149,-0.1556 0.0433,0.0162 0.14703,0.11445 0.31375,0.29706 0.53715,0.58814 1.18183,0.96402 1.89553,1.1052 1.16445,0.23034 2.31589,-0.19695 3.09202,-1.14741 0.55693,-0.68204 0.65867,-0.79122 0.92189,-0.989 0.54077,-0.40648 1.21106,-0.64048 1.90839,-0.66635 l 0.22135,-0.008 -0.0554,-0.0814 c -0.0705,-0.10343 -0.39808,-0.36135 -0.62494,-0.49204 -0.25781,-0.14853 -0.73434,-0.30203 -1.04426,-0.33636 -0.48344,-0.0535 -1.00288,0.0263 -1.38781,0.21318 -0.38789,0.18838 -0.42484,0.21987 -1.46682,1.25043 -0.65177,0.64432 -0.98945,0.96566 -1.02946,0.97883 -0.0794,0.026 -0.27694,-0.036 -0.51923,-0.16318 -0.27141,-0.14243 -0.47868,-0.29477 -0.48437,-0.35587 -0.004,-0.0397 0.33325,-0.38577 2.18066,-2.23942 2.23429,-2.24182 2.44863,-2.44611 2.87585,-2.7385 0.64477,-0.44151 1.59523,-0.79992 2.34099,-0.88276 2.47026,-0.27442 4.78458,1.13054 5.67144,3.44297 0.67976,1.77241 0.30589,3.8397 -0.96002,5.30834 -0.12368,0.14346 -1.19561,1.23475 -2.39213,2.4352 -2.4664,2.47452 -2.21945,2.26052 -2.37667,2.05915 -0.21659,-0.27731 -0.44714,-0.79217 -0.40848,-0.912 0.0147,-0.0454 0.2987,-0.34651 0.99529,-1.05486 1.11281,-1.13163 1.1374,-1.16269 1.31201,-1.65324 0.29038,-0.81596 0.18492,-1.65243 -0.30198,-2.39546 -0.1086,-0.16575 -0.39487,-0.47932 -0.43749,-0.47938 -0.0125,0 -0.0229,0.0879 -0.024,0.19519 -9.8e-4,0.10734 -0.0228,0.32164 -0.0485,0.47617 -0.13576,0.81862 -0.53862,1.49659 -1.21819,2.0501 -0.7021,0.57185 -0.93183,0.81338 -1.18566,1.24674 -0.51244,0.87491 -0.54414,2.01007 -0.0831,2.97705 0.18137,0.38043 0.30379,0.54364 0.73483,0.97965 l 0.38985,0.394 -0.006,0.11144 c -0.004,0.0759 -0.058,0.21308 -0.16834,0.42942 -0.18727,0.36734 -0.22916,0.40209 -0.38139,0.31653 -0.29277,-0.16456 -1.0119,-0.87236 -1.27409,-1.25396 -0.71564,-1.0417 -0.93109,-2.3608 -0.5902,-3.61362 0.10266,-0.37729 0.21335,-0.63705 0.41942,-0.98434 0.28642,-0.4827 0.64773,-0.87018 1.2654,-1.35709 0.79369,-0.62565 1.13622,-1.38324 1.17762,-2.60465 l 0.01,-0.28916 -0.26016,0.006 c -0.3767,0.008 -0.59631,0.0313 -0.89441,0.0949 -0.76045,0.16226 -1.24055,0.48023 -1.85406,1.22798 -0.15147,0.18455 -0.34155,0.40202 -0.42246,0.48321 -1.00036,1.00388 -2.42352,1.41877 -3.85127,1.12274 -0.83921,-0.174 -1.56903,-0.58614 -2.23008,-1.25935 -0.16001,-0.16336 -0.30923,-0.32006 -0.33042,-0.34941 z"
       id="path715-3" /></g></svg>
