<?xml version="1.0" encoding="UTF-8" standalone="no"?>
<!-- Created with Inkscape (http://www.inkscape.org/) -->

<svg
   width="16.000061mm"
   height="15.999817mm"
   viewBox="0 0 16.000061 15.999817"
   version="1.1"
   id="svg5"
   xml:space="preserve"
   xmlns="http://www.w3.org/2000/svg"
   xmlns:svg="http://www.w3.org/2000/svg"><defs
     id="defs2" /><g
     id="layer1"
     transform="translate(-119.80976,-197.24223)"><path
       style="fill:#de4484;fill-opacity:1;stroke-width:0.0306395"
       d="m 120.49013,213.22802 c -0.47497,-0.0653 -0.5559,-0.0846 -0.6245,-0.14905 -0.0828,-0.0778 -0.0827,-0.0791 0.0626,-0.51485 0.11341,-0.34005 0.19639,-0.48765 0.29861,-0.53139 0.0513,-0.022 0.22508,-0.0267 0.52564,-0.0144 0.96827,0.0396 1.84688,-0.17902 2.58338,-0.64282 1.20164,-0.75671 1.82718,-2.0333 1.67976,-3.42808 -0.10576,-1.00087 -0.11186,-1.17129 -0.0548,-1.54384 0.117,-0.76553 0.49379,-1.49681 1.07269,-2.08208 l 0.18376,-0.18578 -0.1176,-0.0208 c -0.14961,-0.0264 -0.65356,0.0307 -0.96137,0.10896 -0.34984,0.0889 -0.89247,0.35076 -1.18912,0.57392 -0.46274,0.3481 -0.84197,0.83289 -1.01321,1.29523 -0.17255,0.46588 -0.17735,0.52119 -0.19032,2.19576 -0.008,1.0472 -0.0234,1.57969 -0.0466,1.62269 -0.0461,0.0853 -0.26966,0.19512 -0.58776,0.28864 -0.3563,0.10481 -0.66583,0.14971 -0.72323,0.10503 -0.0373,-0.0291 -0.0441,-0.58087 -0.0439,-3.5712 2.8e-4,-3.61654 0.01,-3.9548 0.12668,-4.53641 0.17654,-0.87797 0.68799,-1.93634 1.25969,-2.60676 1.89371,-2.22074 5.09557,-2.96075 7.84645,-1.81348 2.10848,0.87935 3.562,2.84932 3.73231,5.05845 0.0166,0.21582 0.03,1.96361 0.0298,3.90027 -4.9e-4,3.99209 0.0286,3.61962 -0.27994,3.58446 -0.42492,-0.0484 -1.06593,-0.27702 -1.13553,-0.40496 -0.0264,-0.0486 -0.0401,-0.52123 -0.0482,-1.65636 -0.0128,-1.81342 -0.0183,-1.85837 -0.28915,-2.39535 -0.4506,-0.89314 -1.26003,-1.48244 -2.31802,-1.68763 -0.236,-0.0458 -0.75212,-0.067 -0.78891,-0.0325 -0.0108,0.0101 0.0557,0.0894 0.14699,0.17686 0.0913,0.0874 0.25657,0.2779 0.36723,0.42328 0.58617,0.77014 0.82127,1.64302 0.71092,2.63949 -0.11401,1.02951 -0.10457,1.41025 0.0489,1.96521 0.30982,1.12044 1.25759,2.06165 2.48564,2.46842 0.48312,0.16004 0.72886,0.19259 1.47495,0.19538 l 0.67451,0.002 0.0904,0.0949 c 0.0615,0.0646 0.13301,0.21884 0.22376,0.4826 0.15411,0.44785 0.14786,0.50979 -0.0569,0.56399 -0.39372,0.10425 -1.62162,0.11542 -2.17544,0.0199 -1.51172,-0.26095 -2.83054,-1.15048 -3.61286,-2.43686 -0.23559,-0.38739 -0.36332,-0.68649 -0.48401,-1.13338 -0.16773,-0.62115 -0.18912,-1.22613 -0.0749,-2.11877 0.14676,-1.14702 -0.20876,-2.03529 -1.22226,-3.05391 l -0.23994,-0.24116 -0.21951,0.21502 c -0.31786,0.31136 -0.48716,0.5079 -0.68949,0.80047 -0.51615,0.74637 -0.65687,1.39142 -0.54342,2.49107 0.028,0.27146 0.0509,0.60071 0.0509,0.73167 0,1.61937 -0.87041,3.10588 -2.35546,4.02273 -0.87288,0.5389 -1.85604,0.7972 -3.00416,0.78926 -0.27827,-0.002 -0.5415,-0.008 -0.58498,-0.0144 z"
       id="path715" /></g></svg>
